ffmpeg started on 2026-01-13 at 11:06:22
Report written to "D:\Convert\FFMetrics\reports\ssim_report-6.txt"
Log level: 32
Command line:
ffmpeg -hide_banner -nostdin -r 24000/1001 -i "F:\\Convert\\files\\[DC] Make Heroine ga Oosugiru - 07_Telegram_HEVC(127).mkv" -r 24000/1001 -i "F:\\Convert\\files\\[DC] Make Heroine ga Oosugiru - 07_Telegram.mp4" -lavfi "[0:v]settb=AVTB,setpts=PTS-STARTPTS,format=pix_fmts=yuv420p10le,fps=24000/1001,scale=1920:1080:flags=lanczos:param0=3:out_range=limited:out_color_matrix=bt709:out_chroma_loc=left,setsar=1/1,setdar=(1920/1080)*(1/1),colorspace=format=yuv420p10:range=tv:primaries=bt709:trc=bt709:space=bt709:fast=0[main];[1:v]settb=AVTB,setpts=PTS-STARTPTS,format=pix_fmts=yuv420p,fps=24000/1001,scale=1920:1080:flags=lanczos:param0=3:out_range=limited:out_color_matrix=bt709:out_chroma_loc=left,setsar=1.000,setdar=1.778,colorspace=format=yuv420p:range=tv:primaries=bt709:trc=bt709:space=bt709:fast=0[ref];[main][ref]ssim=eof_action=endall:stats_file='D\\:/Convert/FFMetrics/logs/ssim_logfile-6.txt'" -f null -
Input #0, matroska,webm, from 'F:\Convert\files\[DC] Make Heroine ga Oosugiru - 07_Telegram_HEVC(127).mkv':
  Metadata:
    COMPATIBLE_BRANDS: isomiso2avc1mp41
    MAJOR_BRAND     : isom
    MINOR_VERSION   : 512
    ENCODER         : Lavf61.7.100
  Duration: 00:24:06.79, start: -0.021000, bitrate: 1028 kb/s
  Stream #0:0: Video: hevc (Main 10), yuv420p10le(tv, bt709, progressive), 1920x1080 [SAR 1:1 DAR 16:9], 23.98 fps, 23.98 tbr, 1k tbn (default)
      Metadata:
        HANDLER_NAME    : VideoHandler
        VENDOR_ID       : [0][0][0][0]
        ENCODER         : Lavc61.19.100 libx265
        BPS             : 831845
        DURATION        : 00:24:06.569708333
        NUMBER_OF_FRAMES: 34683
        NUMBER_OF_BYTES : 150415185
        _STATISTICS_WRITING_APP: mkvpropedit v94.0 ('Initiate') 64-bit
        _STATISTICS_WRITING_DATE_UTC: 2026-01-12 18:30:09
        _STATISTICS_TAGS: BPS DURATION NUMBER_OF_FRAMES NUMBER_OF_BYTES
  Stream #0:1: Audio: aac (LC), 48000 Hz, stereo, fltp (default)
      Metadata:
        HANDLER_NAME    : SoundHandler
        VENDOR_ID       : [0][0][0][0]
        ENCODER         : Lavc61.19.100 aac
        BPS             : 193194
        DURATION        : 00:24:06.784000000
        NUMBER_OF_FRAMES: 67819
        NUMBER_OF_BYTES : 34938755
        _STATISTICS_WRITING_APP: mkvpropedit v94.0 ('Initiate') 64-bit
        _STATISTICS_WRITING_DATE_UTC: 2026-01-12 18:30:09
        _STATISTICS_TAGS: BPS DURATION NUMBER_OF_FRAMES NUMBER_OF_BYTES
Input #1, mov,mp4,m4a,3gp,3g2,mj2, from 'F:\Convert\files\[DC] Make Heroine ga Oosugiru - 07_Telegram.mp4':
  Metadata:
    major_brand     : isom
    minor_version   : 512
    compatible_brands: isomiso2avc1mp41
    encoder         : Lavf60.16.100
  Duration: 00:24:06.74, start: 0.000000, bitrate: 3764 kb/s
  Stream #1:0[0x1](und): Video: h264 (High) (avc1 / 0x31637661), yuv420p(tv, bt709, progressive), 1920x1080 [SAR 1:1 DAR 16:9], 3616 kb/s, 23.98 fps, 23.98 tbr, 24k tbn (default)
      Metadata:
        handler_name    : VideoHandler
        vendor_id       : [0][0][0][0]
        encoder         : Lavc60.31.102 h264_qsv
  Stream #1:1[0x2](und): Audio: aac (HE-AACv2) (mp4a / 0x6134706D), 48000 Hz, stereo, fltp, 144 kb/s (default)
      Metadata:
        handler_name    : SoundHandler
        vendor_id       : [0][0][0][0]
Stream mapping:
  Stream #0:0 (hevc) -> settb:default
  Stream #1:0 (h264) -> settb:default
  ssim:default -> Stream #0:0 (wrapped_avframe)
  Stream #0:1 -> #0:1 (aac (native) -> pcm_s16le (native))
Output #0, null, to 'pipe:':
  Metadata:
    COMPATIBLE_BRANDS: isomiso2avc1mp41
    MAJOR_BRAND     : isom
    MINOR_VERSION   : 512
    encoder         : Lavf61.7.100
  Stream #0:0: Video: wrapped_avframe, yuv420p10le(tv, bt709, progressive), 1920x1080 [SAR 1:1 DAR 16:9], q=2-31, 200 kb/s, 23.98 fps, 23.98 tbn
      Metadata:
        encoder         : Lavc61.19.100 wrapped_avframe
  Stream #0:1: Audio: pcm_s16le, 48000 Hz, stereo, s16, 1536 kb/s (default)
      Metadata:
        HANDLER_NAME    : SoundHandler
        VENDOR_ID       : [0][0][0][0]
        _STATISTICS_TAGS: BPS DURATION NUMBER_OF_FRAMES NUMBER_OF_BYTES
        BPS             : 193194
        DURATION        : 00:24:06.784000000
        NUMBER_OF_FRAMES: 67819
        NUMBER_OF_BYTES : 34938755
        _STATISTICS_WRITING_APP: mkvpropedit v94.0 ('Initiate') 64-bit
        _STATISTICS_WRITING_DATE_UTC: 2026-01-12 18:30:09
        encoder         : Lavc61.19.100 pcm_s16le
frame=   83 fps=0.0 q=-0.0 size=N/A time=00:00:03.46 bitrate=N/A speed=6.66x    frame=  249 fps=241 q=-0.0 size=N/A time=00:00:10.38 bitrate=N/A speed=10.1x    frame=  433 fps=278 q=-0.0 size=N/A time=00:00:18.05 bitrate=N/A speed=11.6x    frame=  607 fps=294 q=-0.0 size=N/A time=00:00:25.31 bitrate=N/A speed=12.2x    frame=  788 fps=304 q=-0.0 size=N/A time=00:00:32.86 bitrate=N/A speed=12.7x    frame=  942 fps=303 q=-0.0 size=N/A time=00:00:39.28 bitrate=N/A speed=12.6x    frame= 1085 fps=299 q=-0.0 size=N/A time=00:00:45.25 bitrate=N/A speed=12.5x    frame= 1244 fps=300 q=-0.0 size=N/A time=00:00:51.88 bitrate=N/A speed=12.5x    frame= 1403 fps=301 q=-0.0 size=N/A time=00:00:58.51 bitrate=N/A speed=12.6x    frame= 1547 fps=299 q=-0.0 size=N/A time=00:01:04.52 bitrate=N/A speed=12.5x    frame= 1700 fps=298 q=-0.0 size=N/A time=00:01:10.90 bitrate=N/A speed=12.4x    frame= 1866 fps=301 q=-0.0 size=N/A time=00:01:17.82 bitrate=N/A speed=12.5x    frame= 2038 fps=303 q=-0.0 size=N/A time=00:01:25.00 bitrate=N/A speed=12.6x    frame= 2119 fps=292 q=-0.0 size=N/A time=00:01:28.37 bitrate=N/A speed=12.2x    frame= 2269 fps=292 q=-0.0 size=N/A time=00:01:34.63 bitrate=N/A speed=12.2x    frame= 2407 fps=290 q=-0.0 size=N/A time=00:01:40.39 bitrate=N/A speed=12.1x    frame= 2535 fps=288 q=-0.0 size=N/A time=00:01:45.73 bitrate=N/A speed=  12x    frame= 2684 fps=288 q=-0.0 size=N/A time=00:01:51.94 bitrate=N/A speed=  12x    frame= 2865 fps=291 q=-0.0 size=N/A time=00:01:59.49 bitrate=N/A speed=12.1x    frame= 3035 fps=293 q=-0.0 size=N/A time=00:02:06.58 bitrate=N/A speed=12.2x    frame= 3227 fps=297 q=-0.0 size=N/A time=00:02:14.59 bitrate=N/A speed=12.4x    frame= 3412 fps=300 q=-0.0 size=N/A time=00:02:22.30 bitrate=N/A speed=12.5x    frame= 3598 fps=302 q=-0.0 size=N/A time=00:02:30.06 bitrate=N/A speed=12.6x    frame= 3785 fps=305 q=-0.0 size=N/A time=00:02:37.86 bitrate=N/A speed=12.7x    frame= 3973 fps=307 q=-0.0 size=N/A time=00:02:45.70 bitrate=N/A speed=12.8x    frame= 4164 fps=310 q=-0.0 size=N/A time=00:02:53.67 bitrate=N/A speed=12.9x    frame= 4354 fps=312 q=-0.0 size=N/A time=00:03:01.59 bitrate=N/A speed=  13x    frame= 4478 fps=309 q=-0.0 size=N/A time=00:03:06.76 bitrate=N/A speed=12.9x    frame= 4667 fps=311 q=-0.0 size=N/A time=00:03:14.65 bitrate=N/A speed=  13x    frame= 4851 fps=313 q=-0.0 size=N/A time=00:03:22.32 bitrate=N/A speed=  13x    frame= 5028 fps=314 q=-0.0 size=N/A time=00:03:29.70 bitrate=N/A speed=13.1x    frame= 5212 fps=315 q=-0.0 size=N/A time=00:03:37.38 bitrate=N/A speed=13.1x    frame= 5387 fps=316 q=-0.0 size=N/A time=00:03:44.68 bitrate=N/A speed=13.2x    frame= 5573 fps=317 q=-0.0 size=N/A time=00:03:52.44 bitrate=N/A speed=13.2x    frame= 5743 fps=318 q=-0.0 size=N/A time=00:03:59.53 bitrate=N/A speed=13.2x    frame= 5862 fps=315 q=-0.0 size=N/A time=00:04:04.49 bitrate=N/A speed=13.1x    frame= 6047 fps=316 q=-0.0 size=N/A time=00:04:12.21 bitrate=N/A speed=13.2x    frame= 6241 fps=318 q=-0.0 size=N/A time=00:04:20.30 bitrate=N/A speed=13.3x    frame= 6424 fps=319 q=-0.0 size=N/A time=00:04:27.93 bitrate=N/A speed=13.3x    frame= 6611 fps=320 q=-0.0 size=N/A time=00:04:35.73 bitrate=N/A speed=13.3x    frame= 6804 fps=321 q=-0.0 size=N/A time=00:04:43.78 bitrate=N/A speed=13.4x    frame= 6990 fps=322 q=-0.0 size=N/A time=00:04:51.54 bitrate=N/A speed=13.4x    frame= 7163 fps=323 q=-0.0 size=N/A time=00:04:58.75 bitrate=N/A speed=13.5x    frame= 7338 fps=323 q=-0.0 size=N/A time=00:05:06.05 bitrate=N/A speed=13.5x    frame= 7519 fps=324 q=-0.0 size=N/A time=00:05:13.60 bitrate=N/A speed=13.5x    frame= 7692 fps=324 q=-0.0 size=N/A time=00:05:20.82 bitrate=N/A speed=13.5x    frame= 7870 fps=324 q=-0.0 size=N/A time=00:05:28.24 bitrate=N/A speed=13.5x    frame= 8045 fps=325 q=-0.0 size=N/A time=00:05:35.54 bitrate=N/A speed=13.5x    frame= 8170 fps=323 q=-0.0 size=N/A time=00:05:40.75 bitrate=N/A speed=13.5x    frame= 8341 fps=323 q=-0.0 size=N/A time=00:05:47.88 bitrate=N/A speed=13.5x    frame= 8506 fps=323 q=-0.0 size=N/A time=00:05:54.77 bitrate=N/A speed=13.5x    frame= 8675 fps=323 q=-0.0 size=N/A time=00:06:01.81 bitrate=N/A speed=13.5x    frame= 8845 fps=323 q=-0.0 size=N/A time=00:06:08.91 bitrate=N/A speed=13.5x    frame= 9028 fps=324 q=-0.0 size=N/A time=00:06:16.54 bitrate=N/A speed=13.5x    frame= 9212 fps=324 q=-0.0 size=N/A time=00:06:24.21 bitrate=N/A speed=13.5x    frame= 9396 fps=325 q=-0.0 size=N/A time=00:06:31.89 bitrate=N/A speed=13.6x    frame= 9580 fps=325 q=-0.0 size=N/A time=00:06:39.56 bitrate=N/A speed=13.6x    frame= 9767 fps=326 q=-0.0 size=N/A time=00:06:47.36 bitrate=N/A speed=13.6x    frame= 9949 fps=327 q=-0.0 size=N/A time=00:06:54.95 bitrate=N/A speed=13.6x    frame=10132 fps=327 q=-0.0 size=N/A time=00:07:02.58 bitrate=N/A speed=13.6x    frame=10315 fps=328 q=-0.0 size=N/A time=00:07:10.22 bitrate=N/A speed=13.7x    frame=10484 fps=328 q=-0.0 size=N/A time=00:07:17.27 bitrate=N/A speed=13.7x    frame=10612 fps=326 q=-0.0 size=N/A time=00:07:22.60 bitrate=N/A speed=13.6x    frame=10792 fps=327 q=-0.0 size=N/A time=00:07:30.11 bitrate=N/A speed=13.6x    frame=10969 fps=327 q=-0.0 size=N/A time=00:07:37.49 bitrate=N/A speed=13.6x    frame=11145 fps=327 q=-0.0 size=N/A time=00:07:44.83 bitrate=N/A speed=13.6x    frame=11325 fps=327 q=-0.0 size=N/A time=00:07:52.34 bitrate=N/A speed=13.7x    frame=11501 fps=328 q=-0.0 size=N/A time=00:07:59.68 bitrate=N/A speed=13.7x    frame=11670 fps=328 q=-0.0 size=N/A time=00:08:06.73 bitrate=N/A speed=13.7x    frame=11844 fps=328 q=-0.0 size=N/A time=00:08:13.99 bitrate=N/A speed=13.7x    frame=12022 fps=328 q=-0.0 size=N/A time=00:08:21.41 bitrate=N/A speed=13.7x    frame=12178 fps=328 q=-0.0 size=N/A time=00:08:27.92 bitrate=N/A speed=13.7x    frame=12310 fps=327 q=-0.0 size=N/A time=00:08:33.42 bitrate=N/A speed=13.6x    frame=12436 fps=326 q=-0.0 size=N/A time=00:08:38.68 bitrate=N/A speed=13.6x    frame=12564 fps=325 q=-0.0 size=N/A time=00:08:44.02 bitrate=N/A speed=13.5x    frame=12700 fps=324 q=-0.0 size=N/A time=00:08:49.69 bitrate=N/A speed=13.5x    frame=12864 fps=324 q=-0.0 size=N/A time=00:08:56.53 bitrate=N/A speed=13.5x    frame=13030 fps=324 q=-0.0 size=N/A time=00:09:03.45 bitrate=N/A speed=13.5x    frame=13202 fps=324 q=-0.0 size=N/A time=00:09:10.63 bitrate=N/A speed=13.5x    frame=13373 fps=324 q=-0.0 size=N/A time=00:09:17.76 bitrate=N/A speed=13.5x    frame=13552 fps=324 q=-0.0 size=N/A time=00:09:25.23 bitrate=N/A speed=13.5x    frame=13722 fps=324 q=-0.0 size=N/A time=00:09:32.32 bitrate=N/A speed=13.5x    frame=13904 fps=325 q=-0.0 size=N/A time=00:09:39.91 bitrate=N/A speed=13.5x    frame=14076 fps=325 q=-0.0 size=N/A time=00:09:47.08 bitrate=N/A speed=13.5x    frame=14243 fps=325 q=-0.0 size=N/A time=00:09:54.05 bitrate=N/A speed=13.5x    frame=14426 fps=325 q=-0.0 size=N/A time=00:10:01.68 bitrate=N/A speed=13.6x    frame=14610 fps=325 q=-0.0 size=N/A time=00:10:09.35 bitrate=N/A speed=13.6x    frame=14790 fps=326 q=-0.0 size=N/A time=00:10:16.86 bitrate=N/A speed=13.6x    frame=14957 fps=326 q=-0.0 size=N/A time=00:10:23.83 bitrate=N/A speed=13.6x    frame=15081 fps=325 q=-0.0 size=N/A time=00:10:29.00 bitrate=N/A speed=13.5x    frame=15227 fps=324 q=-0.0 size=N/A time=00:10:35.09 bitrate=N/A speed=13.5x    frame=15403 fps=324 q=-0.0 size=N/A time=00:10:42.43 bitrate=N/A speed=13.5x    frame=15594 fps=325 q=-0.0 size=N/A time=00:10:50.39 bitrate=N/A speed=13.6x    frame=15766 fps=325 q=-0.0 size=N/A time=00:10:57.57 bitrate=N/A speed=13.6x    frame=15945 fps=325 q=-0.0 size=N/A time=00:11:05.03 bitrate=N/A speed=13.6x    frame=16133 fps=326 q=-0.0 size=N/A time=00:11:12.88 bitrate=N/A speed=13.6x    frame=16327 fps=326 q=-0.0 size=N/A time=00:11:20.97 bitrate=N/A speed=13.6x    frame=16512 fps=327 q=-0.0 size=N/A time=00:11:28.68 bitrate=N/A speed=13.6x    frame=16698 fps=327 q=-0.0 size=N/A time=00:11:36.44 bitrate=N/A speed=13.6x    frame=16880 fps=327 q=-0.0 size=N/A time=00:11:44.03 bitrate=N/A speed=13.6x    frame=17074 fps=328 q=-0.0 size=N/A time=00:11:52.12 bitrate=N/A speed=13.7x    frame=17267 fps=328 q=-0.0 size=N/A time=00:12:00.17 bitrate=N/A speed=13.7x    frame=17422 fps=328 q=-0.0 size=N/A time=00:12:06.64 bitrate=N/A speed=13.7x    frame=17579 fps=328 q=-0.0 size=N/A time=00:12:13.19 bitrate=N/A speed=13.7x    frame=17757 fps=328 q=-0.0 size=N/A time=00:12:20.61 bitrate=N/A speed=13.7x    frame=17919 fps=328 q=-0.0 size=N/A time=00:12:27.37 bitrate=N/A speed=13.7x    frame=18088 fps=328 q=-0.0 size=N/A time=00:12:34.42 bitrate=N/A speed=13.7x    frame=18253 fps=327 q=-0.0 size=N/A time=00:12:41.30 bitrate=N/A speed=13.7x    frame=18414 fps=327 q=-0.0 size=N/A time=00:12:48.01 bitrate=N/A speed=13.7x    frame=18593 fps=327 q=-0.0 size=N/A time=00:12:55.48 bitrate=N/A speed=13.7x    frame=18778 fps=328 q=-0.0 size=N/A time=00:13:03.19 bitrate=N/A speed=13.7x    frame=18956 fps=328 q=-0.0 size=N/A time=00:13:10.62 bitrate=N/A speed=13.7x    frame=19145 fps=328 q=-0.0 size=N/A time=00:13:18.50 bitrate=N/A speed=13.7x    frame=19325 fps=328 q=-0.0 size=N/A time=00:13:26.01 bitrate=N/A speed=13.7x    frame=19511 fps=329 q=-0.0 size=N/A time=00:13:33.77 bitrate=N/A speed=13.7x    frame=19700 fps=329 q=-0.0 size=N/A time=00:13:41.65 bitrate=N/A speed=13.7x    frame=19841 fps=329 q=-0.0 size=N/A time=00:13:47.53 bitrate=N/A speed=13.7x    frame=20027 fps=329 q=-0.0 size=N/A time=00:13:55.29 bitrate=N/A speed=13.7x    frame=20214 fps=329 q=-0.0 size=N/A time=00:14:03.09 bitrate=N/A speed=13.7x    frame=20404 fps=329 q=-0.0 size=N/A time=00:14:11.01 bitrate=N/A speed=13.7x    frame=20568 fps=329 q=-0.0 size=N/A time=00:14:17.85 bitrate=N/A speed=13.7x    frame=20745 fps=330 q=-0.0 size=N/A time=00:14:25.23 bitrate=N/A speed=13.7x    frame=20927 fps=330 q=-0.0 size=N/A time=00:14:32.83 bitrate=N/A speed=13.7x    frame=21107 fps=330 q=-0.0 size=N/A time=00:14:40.33 bitrate=N/A speed=13.8x    frame=21283 fps=330 q=-0.0 size=N/A time=00:14:47.67 bitrate=N/A speed=13.8x    frame=21463 fps=330 q=-0.0 size=N/A time=00:14:55.18 bitrate=N/A speed=13.8x    frame=21643 fps=330 q=-0.0 size=N/A time=00:15:02.69 bitrate=N/A speed=13.8x    frame=21819 fps=330 q=-0.0 size=N/A time=00:15:10.03 bitrate=N/A speed=13.8x    frame=21994 fps=330 q=-0.0 size=N/A time=00:15:17.33 bitrate=N/A speed=13.8x    frame=22147 fps=330 q=-0.0 size=N/A time=00:15:23.71 bitrate=N/A speed=13.8x    frame=22294 fps=330 q=-0.0 size=N/A time=00:15:29.84 bitrate=N/A speed=13.8x    frame=22463 fps=330 q=-0.0 size=N/A time=00:15:36.89 bitrate=N/A speed=13.8x    frame=22643 fps=330 q=-0.0 size=N/A time=00:15:44.40 bitrate=N/A speed=13.8x    frame=22825 fps=330 q=-0.0 size=N/A time=00:15:51.99 bitrate=N/A speed=13.8x    frame=23006 fps=330 q=-0.0 size=N/A time=00:15:59.54 bitrate=N/A speed=13.8x    frame=23189 fps=330 q=-0.0 size=N/A time=00:16:07.17 bitrate=N/A speed=13.8x    frame=23382 fps=331 q=-0.0 size=N/A time=00:16:15.22 bitrate=N/A speed=13.8x    frame=23564 fps=331 q=-0.0 size=N/A time=00:16:22.81 bitrate=N/A speed=13.8x    frame=23756 fps=331 q=-0.0 size=N/A time=00:16:30.82 bitrate=N/A speed=13.8x    frame=23934 fps=331 q=-0.0 size=N/A time=00:16:38.24 bitrate=N/A speed=13.8x    frame=24109 fps=331 q=-0.0 size=N/A time=00:16:45.54 bitrate=N/A speed=13.8x    frame=24288 fps=331 q=-0.0 size=N/A time=00:16:53.01 bitrate=N/A speed=13.8x    frame=24462 fps=332 q=-0.0 size=N/A time=00:17:00.26 bitrate=N/A speed=13.8x    frame=24607 fps=331 q=-0.0 size=N/A time=00:17:06.31 bitrate=N/A speed=13.8x    frame=24783 fps=331 q=-0.0 size=N/A time=00:17:13.65 bitrate=N/A speed=13.8x    frame=24965 fps=331 q=-0.0 size=N/A time=00:17:21.24 bitrate=N/A speed=13.8x    frame=25155 fps=332 q=-0.0 size=N/A time=00:17:29.17 bitrate=N/A speed=13.8x    frame=25337 fps=332 q=-0.0 size=N/A time=00:17:36.76 bitrate=N/A speed=13.8x    frame=25520 fps=332 q=-0.0 size=N/A time=00:17:44.39 bitrate=N/A speed=13.8x    frame=25702 fps=332 q=-0.0 size=N/A time=00:17:51.98 bitrate=N/A speed=13.9x    frame=25892 fps=332 q=-0.0 size=N/A time=00:17:59.91 bitrate=N/A speed=13.9x    frame=25995 fps=331 q=-0.0 size=N/A time=00:18:04.20 bitrate=N/A speed=13.8x    frame=26134 fps=331 q=-0.0 size=N/A time=00:18:10.00 bitrate=N/A speed=13.8x    frame=26305 fps=331 q=-0.0 size=N/A time=00:18:17.13 bitrate=N/A speed=13.8x    frame=26474 fps=331 q=-0.0 size=N/A time=00:18:24.18 bitrate=N/A speed=13.8x    frame=26648 fps=331 q=-0.0 size=N/A time=00:18:31.44 bitrate=N/A speed=13.8x    frame=26823 fps=331 q=-0.0 size=N/A time=00:18:38.74 bitrate=N/A speed=13.8x    frame=26978 fps=331 q=-0.0 size=N/A time=00:18:45.20 bitrate=N/A speed=13.8x    frame=27157 fps=331 q=-0.0 size=N/A time=00:18:52.67 bitrate=N/A speed=13.8x    frame=27323 fps=331 q=-0.0 size=N/A time=00:18:59.59 bitrate=N/A speed=13.8x    frame=27507 fps=331 q=-0.0 size=N/A time=00:19:07.27 bitrate=N/A speed=13.8x    frame=27679 fps=331 q=-0.0 size=N/A time=00:19:14.44 bitrate=N/A speed=13.8x    frame=27859 fps=331 q=-0.0 size=N/A time=00:19:21.95 bitrate=N/A speed=13.8x    frame=28042 fps=331 q=-0.0 size=N/A time=00:19:29.58 bitrate=N/A speed=13.8x    frame=28208 fps=331 q=-0.0 size=N/A time=00:19:36.50 bitrate=N/A speed=13.8x    frame=28365 fps=331 q=-0.0 size=N/A time=00:19:43.05 bitrate=N/A speed=13.8x    frame=28550 fps=331 q=-0.0 size=N/A time=00:19:50.77 bitrate=N/A speed=13.8x    frame=28730 fps=331 q=-0.0 size=N/A time=00:19:58.28 bitrate=N/A speed=13.8x    frame=28900 fps=331 q=-0.0 size=N/A time=00:20:05.37 bitrate=N/A speed=13.8x    frame=29061 fps=331 q=-0.0 size=N/A time=00:20:12.08 bitrate=N/A speed=13.8x    frame=29233 fps=331 q=-0.0 size=N/A time=00:20:19.25 bitrate=N/A speed=13.8x    frame=29405 fps=331 q=-0.0 size=N/A time=00:20:26.43 bitrate=N/A speed=13.8x    frame=29572 fps=331 q=-0.0 size=N/A time=00:20:33.39 bitrate=N/A speed=13.8x    frame=29748 fps=331 q=-0.0 size=N/A time=00:20:40.73 bitrate=N/A speed=13.8x    frame=29922 fps=331 q=-0.0 size=N/A time=00:20:47.99 bitrate=N/A speed=13.8x    frame=30085 fps=331 q=-0.0 size=N/A time=00:20:54.79 bitrate=N/A speed=13.8x    frame=30261 fps=331 q=-0.0 size=N/A time=00:21:02.13 bitrate=N/A speed=13.8x    frame=30446 fps=332 q=-0.0 size=N/A time=00:21:09.85 bitrate=N/A speed=13.8x    frame=30580 fps=331 q=-0.0 size=N/A time=00:21:15.44 bitrate=N/A speed=13.8x    frame=30766 fps=331 q=-0.0 size=N/A time=00:21:23.19 bitrate=N/A speed=13.8x    frame=30945 fps=331 q=-0.0 size=N/A time=00:21:30.66 bitrate=N/A speed=13.8x    frame=31130 fps=332 q=-0.0 size=N/A time=00:21:38.38 bitrate=N/A speed=13.8x    frame=31316 fps=332 q=-0.0 size=N/A time=00:21:46.13 bitrate=N/A speed=13.8x    frame=31488 fps=332 q=-0.0 size=N/A time=00:21:53.31 bitrate=N/A speed=13.8x    frame=31662 fps=332 q=-0.0 size=N/A time=00:22:00.56 bitrate=N/A speed=13.8x    frame=31829 fps=332 q=-0.0 size=N/A time=00:22:07.53 bitrate=N/A speed=13.8x    frame=32005 fps=332 q=-0.0 size=N/A time=00:22:14.87 bitrate=N/A speed=13.8x    frame=32197 fps=332 q=-0.0 size=N/A time=00:22:22.88 bitrate=N/A speed=13.8x    frame=32382 fps=332 q=-0.0 size=N/A time=00:22:30.59 bitrate=N/A speed=13.8x    frame=32566 fps=332 q=-0.0 size=N/A time=00:22:38.27 bitrate=N/A speed=13.9x    frame=32733 fps=332 q=-0.0 size=N/A time=00:22:45.23 bitrate=N/A speed=13.9x    frame=32869 fps=332 q=-0.0 size=N/A time=00:22:50.91 bitrate=N/A speed=13.8x    frame=33003 fps=331 q=-0.0 size=N/A time=00:22:56.50 bitrate=N/A speed=13.8x    frame=33172 fps=331 q=-0.0 size=N/A time=00:23:03.54 bitrate=N/A speed=13.8x    frame=33347 fps=331 q=-0.0 size=N/A time=00:23:10.84 bitrate=N/A speed=13.8x    frame=33504 fps=331 q=-0.0 size=N/A time=00:23:17.39 bitrate=N/A speed=13.8x    frame=33650 fps=331 q=-0.0 size=N/A time=00:23:23.48 bitrate=N/A speed=13.8x    frame=33787 fps=331 q=-0.0 size=N/A time=00:23:29.19 bitrate=N/A speed=13.8x    frame=33920 fps=330 q=-0.0 size=N/A time=00:23:34.74 bitrate=N/A speed=13.8x    frame=34079 fps=330 q=-0.0 size=N/A time=00:23:41.37 bitrate=N/A speed=13.8x    frame=34236 fps=330 q=-0.0 size=N/A time=00:23:47.92 bitrate=N/A speed=13.8x    frame=34368 fps=330 q=-0.0 size=N/A time=00:23:53.43 bitrate=N/A speed=13.8x    frame=34509 fps=329 q=-0.0 size=N/A time=00:23:59.31 bitrate=N/A speed=13.7x    [Parsed_ssim_16 @ 00000200f3367480] SSIM Y:0.994474 (22.575922) U:0.994282 (22.427753) V:0.993928 (22.166429) All:0.994351 (22.480291)
[out#0/null @ 00000200e5718a00] video:14903KiB audio:271276KiB subtitle:0KiB other streams:0KiB global headers:0KiB muxing overhead: unknown
frame=34683 fps=330 q=-0.0 Lsize=N/A time=00:24:06.57 bitrate=N/A speed=13.7x    
